<?xml version="1.0" encoding="UTF-8"?>
<svg version="1.1" baseProfile="tiny" xmlns="http://www.w3.org/2000/svg" width="150" height="150">
<rect shape-rendering="optimizeSpeed"  x="0" y="0" width="150" height="150" fill="white" />
<rect shape-rendering="optimizeSpeed"  x="12" y="12" width="6" height="6" fill="black" />
<rect shape-rendering="optimizeSpeed"  x="18" y="12" width="6" height="6" fill="black" />
<rect shape-rendering="optimizeSpeed"  x="24" y="12" width="6" height="6" fill="black" />
<rect shape-rendering="optimizeSpeed"  x="30" y="12" width="6" height="6" fill="black" />
<rect shape-rendering="optimizeSpeed"  x="36" y="12" width="6" height="6" fill="black" />
<rect shape-rendering="optimizeSpeed"  x="42" y="12" width="6" height="6" fill="black" />
<rect shape-rendering="optimizeSpeed"  x="48" y="12" width="6" height="6" fill="black" />
<rect shape-rendering="optimizeSpeed"  x="66" y="12" width="6" height="6" fill="black" />
<rect shape-rendering="optimizeSpeed"  x="78" y="12" width="6" height="6" fill="black" />
<rect shape-rendering="optimizeSpeed"  x="84" y="12" width="6" height="6" fill="black" />
<rect shape-rendering="optimizeSpeed"  x="96" y="12" width="6" height="6" fill="black" />
<rect shape-rendering="optimizeSpeed"  x="102" y="12" width="6" height="6" fill="black" />
<rect shape-rendering="optimizeSpeed"  x="108" y="12" width="6" height="6" fill="black" />
<rect shape-rendering="optimizeSpeed"  x="114" y="12" width="6" height="6" fill="black" />
<rect shape-rendering="optimizeSpeed"  x="120" y="12" width="6" height="6" fill="black" />
<rect shape-rendering="optimizeSpeed"  x="126" y="12" width="6" height="6" fill="black" />
<rect shape-rendering="optimizeSpeed"  x="132" y="12" width="6" height="6" fill="black" />
<rect shape-rendering="optimizeSpeed"  x="12" y="18" width="6" height="6" fill="black" />
<rect shape-rendering="optimizeSpeed"  x="48" y="18" width="6" height="6" fill="black" />
<rect shape-rendering="optimizeSpeed"  x="66" y="18" width="6" height="6" fill="black" />
<rect shape-rendering="optimizeSpeed"  x="72" y="18" width="6" height="6" fill="black" />
<rect shape-rendering="optimizeSpeed"  x="78" y="18" width="6" height="6" fill="black" />
<rect shape-rendering="optimizeSpeed"  x="96" y="18" width="6" height="6" fill="black" />
<rect shape-rendering="optimizeSpeed"  x="132" y="18" width="6" height="6" fill="black" />
<rect shape-rendering="optimizeSpeed"  x="12" y="24" width="6" height="6" fill="black" />
<rect shape-rendering="optimizeSpeed"  x="24" y="24" width="6" height="6" fill="black" />
<rect shape-rendering="optimizeSpeed"  x="30" y="24" width="6" height="6" fill="black" />
<rect shape-rendering="optimizeSpeed"  x="36" y="24" width="6" height="6" fill="black" />
<rect shape-rendering="optimizeSpeed"  x="48" y="24" width="6" height="6" fill="black" />
<rect shape-rendering="optimizeSpeed"  x="60" y="24" width="6" height="6" fill="black" />
<rect shape-rendering="optimizeSpeed"  x="66" y="24" width="6" height="6" fill="black" />
<rect shape-rendering="optimizeSpeed"  x="78" y="24" width="6" height="6" fill="black" />
<rect shape-rendering="optimizeSpeed"  x="84" y="24" width="6" height="6" fill="black" />
<rect shape-rendering="optimizeSpeed"  x="96" y="24" width="6" height="6" fill="black" />
<rect shape-rendering="optimizeSpeed"  x="108" y="24" width="6" height="6" fill="black" />
<rect shape-rendering="optimizeSpeed"  x="114" y="24" width="6" height="6" fill="black" />
<rect shape-rendering="optimizeSpeed"  x="120" y="24" width="6" height="6" fill="black" />
<rect shape-rendering="optimizeSpeed"  x="132" y="24" width="6" height="6" fill="black" />
<rect shape-rendering="optimizeSpeed"  x="12" y="30" width="6" height="6" fill="black" />
<rect shape-rendering="optimizeSpeed"  x="24" y="30" width="6" height="6" fill="black" />
<rect shape-rendering="optimizeSpeed"  x="30" y="30" width="6" height="6" fill="black" />
<rect shape-rendering="optimizeSpeed"  x="36" y="30" width="6" height="6" fill="black" />
<rect shape-rendering="optimizeSpeed"  x="48" y="30" width="6" height="6" fill="black" />
<rect shape-rendering="optimizeSpeed"  x="66" y="30" width="6" height="6" fill="black" />
<rect shape-rendering="optimizeSpeed"  x="78" y="30" width="6" height="6" fill="black" />
<rect shape-rendering="optimizeSpeed"  x="96" y="30" width="6" height="6" fill="black" />
<rect shape-rendering="optimizeSpeed"  x="108" y="30" width="6" height="6" fill="black" />
<rect shape-rendering="optimizeSpeed"  x="114" y="30" width="6" height="6" fill="black" />
<rect shape-rendering="optimizeSpeed"  x="120" y="30" width="6" height="6" fill="black" />
<rect shape-rendering="optimizeSpeed"  x="132" y="30" width="6" height="6" fill="black" />
<rect shape-rendering="optimizeSpeed"  x="12" y="36" width="6" height="6" fill="black" />
<rect shape-rendering="optimizeSpeed"  x="24" y="36" width="6" height="6" fill="black" />
<rect shape-rendering="optimizeSpeed"  x="30" y="36" width="6" height="6" fill="black" />
<rect shape-rendering="optimizeSpeed"  x="36" y="36" width="6" height="6" fill="black" />
<rect shape-rendering="optimizeSpeed"  x="48" y="36" width="6" height="6" fill="black" />
<rect shape-rendering="optimizeSpeed"  x="72" y="36" width="6" height="6" fill="black" />
<rect shape-rendering="optimizeSpeed"  x="84" y="36" width="6" height="6" fill="black" />
<rect shape-rendering="optimizeSpeed"  x="96" y="36" width="6" height="6" fill="black" />
<rect shape-rendering="optimizeSpeed"  x="108" y="36" width="6" height="6" fill="black" />
<rect shape-rendering="optimizeSpeed"  x="114" y="36" width="6" height="6" fill="black" />
<rect shape-rendering="optimizeSpeed"  x="120" y="36" width="6" height="6" fill="black" />
<rect shape-rendering="optimizeSpeed"  x="132" y="36" width="6" height="6" fill="black" />
<rect shape-rendering="optimizeSpeed"  x="12" y="42" width="6" height="6" fill="black" />
<rect shape-rendering="optimizeSpeed"  x="48" y="42" width="6" height="6" fill="black" />
<rect shape-rendering="optimizeSpeed"  x="84" y="42" width="6" height="6" fill="black" />
<rect shape-rendering="optimizeSpeed"  x="96" y="42" width="6" height="6" fill="black" />
<rect shape-rendering="optimizeSpeed"  x="132" y="42" width="6" height="6" fill="black" />
<rect shape-rendering="optimizeSpeed"  x="12" y="48" width="6" height="6" fill="black" />
<rect shape-rendering="optimizeSpeed"  x="18" y="48" width="6" height="6" fill="black" />
<rect shape-rendering="optimizeSpeed"  x="24" y="48" width="6" height="6" fill="black" />
<rect shape-rendering="optimizeSpeed"  x="30" y="48" width="6" height="6" fill="black" />
<rect shape-rendering="optimizeSpeed"  x="36" y="48" width="6" height="6" fill="black" />
<rect shape-rendering="optimizeSpeed"  x="42" y="48" width="6" height="6" fill="black" />
<rect shape-rendering="optimizeSpeed"  x="48" y="48" width="6" height="6" fill="black" />
<rect shape-rendering="optimizeSpeed"  x="60" y="48" width="6" height="6" fill="black" />
<rect shape-rendering="optimizeSpeed"  x="72" y="48" width="6" height="6" fill="black" />
<rect shape-rendering="optimizeSpeed"  x="84" y="48" width="6" height="6" fill="black" />
<rect shape-rendering="optimizeSpeed"  x="96" y="48" width="6" height="6" fill="black" />
<rect shape-rendering="optimizeSpeed"  x="102" y="48" width="6" height="6" fill="black" />
<rect shape-rendering="optimizeSpeed"  x="108" y="48" width="6" height="6" fill="black" />
<rect shape-rendering="optimizeSpeed"  x="114" y="48" width="6" height="6" fill="black" />
<rect shape-rendering="optimizeSpeed"  x="120" y="48" width="6" height="6" fill="black" />
<rect shape-rendering="optimizeSpeed"  x="126" y="48" width="6" height="6" fill="black" />
<rect shape-rendering="optimizeSpeed"  x="132" y="48" width="6" height="6" fill="black" />
<rect shape-rendering="optimizeSpeed"  x="60" y="54" width="6" height="6" fill="black" />
<rect shape-rendering="optimizeSpeed"  x="66" y="54" width="6" height="6" fill="black" />
<rect shape-rendering="optimizeSpeed"  x="78" y="54" width="6" height="6" fill="black" />
<rect shape-rendering="optimizeSpeed"  x="84" y="54" width="6" height="6" fill="black" />
<rect shape-rendering="optimizeSpeed"  x="12" y="60" width="6" height="6" fill="black" />
<rect shape-rendering="optimizeSpeed"  x="18" y="60" width="6" height="6" fill="black" />
<rect shape-rendering="optimizeSpeed"  x="24" y="60" width="6" height="6" fill="black" />
<rect shape-rendering="optimizeSpeed"  x="36" y="60" width="6" height="6" fill="black" />
<rect shape-rendering="optimizeSpeed"  x="42" y="60" width="6" height="6" fill="black" />
<rect shape-rendering="optimizeSpeed"  x="48" y="60" width="6" height="6" fill="black" />
<rect shape-rendering="optimizeSpeed"  x="54" y="60" width="6" height="6" fill="black" />
<rect shape-rendering="optimizeSpeed"  x="60" y="60" width="6" height="6" fill="black" />
<rect shape-rendering="optimizeSpeed"  x="66" y="60" width="6" height="6" fill="black" />
<rect shape-rendering="optimizeSpeed"  x="72" y="60" width="6" height="6" fill="black" />
<rect shape-rendering="optimizeSpeed"  x="78" y="60" width="6" height="6" fill="black" />
<rect shape-rendering="optimizeSpeed"  x="90" y="60" width="6" height="6" fill="black" />
<rect shape-rendering="optimizeSpeed"  x="96" y="60" width="6" height="6" fill="black" />
<rect shape-rendering="optimizeSpeed"  x="120" y="60" width="6" height="6" fill="black" />
<rect shape-rendering="optimizeSpeed"  x="12" y="66" width="6" height="6" fill="black" />
<rect shape-rendering="optimizeSpeed"  x="18" y="66" width="6" height="6" fill="black" />
<rect shape-rendering="optimizeSpeed"  x="24" y="66" width="6" height="6" fill="black" />
<rect shape-rendering="optimizeSpeed"  x="36" y="66" width="6" height="6" fill="black" />
<rect shape-rendering="optimizeSpeed"  x="42" y="66" width="6" height="6" fill="black" />
<rect shape-rendering="optimizeSpeed"  x="54" y="66" width="6" height="6" fill="black" />
<rect shape-rendering="optimizeSpeed"  x="60" y="66" width="6" height="6" fill="black" />
<rect shape-rendering="optimizeSpeed"  x="72" y="66" width="6" height="6" fill="black" />
<rect shape-rendering="optimizeSpeed"  x="96" y="66" width="6" height="6" fill="black" />
<rect shape-rendering="optimizeSpeed"  x="102" y="66" width="6" height="6" fill="black" />
<rect shape-rendering="optimizeSpeed"  x="114" y="66" width="6" height="6" fill="black" />
<rect shape-rendering="optimizeSpeed"  x="120" y="66" width="6" height="6" fill="black" />
<rect shape-rendering="optimizeSpeed"  x="126" y="66" width="6" height="6" fill="black" />
<rect shape-rendering="optimizeSpeed"  x="132" y="66" width="6" height="6" fill="black" />
<rect shape-rendering="optimizeSpeed"  x="24" y="72" width="6" height="6" fill="black" />
<rect shape-rendering="optimizeSpeed"  x="30" y="72" width="6" height="6" fill="black" />
<rect shape-rendering="optimizeSpeed"  x="36" y="72" width="6" height="6" fill="black" />
<rect shape-rendering="optimizeSpeed"  x="42" y="72" width="6" height="6" fill="black" />
<rect shape-rendering="optimizeSpeed"  x="48" y="72" width="6" height="6" fill="black" />
<rect shape-rendering="optimizeSpeed"  x="60" y="72" width="6" height="6" fill="black" />
<rect shape-rendering="optimizeSpeed"  x="72" y="72" width="6" height="6" fill="black" />
<rect shape-rendering="optimizeSpeed"  x="84" y="72" width="6" height="6" fill="black" />
<rect shape-rendering="optimizeSpeed"  x="108" y="72" width="6" height="6" fill="black" />
<rect shape-rendering="optimizeSpeed"  x="120" y="72" width="6" height="6" fill="black" />
<rect shape-rendering="optimizeSpeed"  x="132" y="72" width="6" height="6" fill="black" />
<rect shape-rendering="optimizeSpeed"  x="12" y="78" width="6" height="6" fill="black" />
<rect shape-rendering="optimizeSpeed"  x="18" y="78" width="6" height="6" fill="black" />
<rect shape-rendering="optimizeSpeed"  x="36" y="78" width="6" height="6" fill="black" />
<rect shape-rendering="optimizeSpeed"  x="42" y="78" width="6" height="6" fill="black" />
<rect shape-rendering="optimizeSpeed"  x="54" y="78" width="6" height="6" fill="black" />
<rect shape-rendering="optimizeSpeed"  x="66" y="78" width="6" height="6" fill="black" />
<rect shape-rendering="optimizeSpeed"  x="72" y="78" width="6" height="6" fill="black" />
<rect shape-rendering="optimizeSpeed"  x="96" y="78" width="6" height="6" fill="black" />
<rect shape-rendering="optimizeSpeed"  x="120" y="78" width="6" height="6" fill="black" />
<rect shape-rendering="optimizeSpeed"  x="12" y="84" width="6" height="6" fill="black" />
<rect shape-rendering="optimizeSpeed"  x="18" y="84" width="6" height="6" fill="black" />
<rect shape-rendering="optimizeSpeed"  x="24" y="84" width="6" height="6" fill="black" />
<rect shape-rendering="optimizeSpeed"  x="48" y="84" width="6" height="6" fill="black" />
<rect shape-rendering="optimizeSpeed"  x="54" y="84" width="6" height="6" fill="black" />
<rect shape-rendering="optimizeSpeed"  x="66" y="84" width="6" height="6" fill="black" />
<rect shape-rendering="optimizeSpeed"  x="72" y="84" width="6" height="6" fill="black" />
<rect shape-rendering="optimizeSpeed"  x="84" y="84" width="6" height="6" fill="black" />
<rect shape-rendering="optimizeSpeed"  x="96" y="84" width="6" height="6" fill="black" />
<rect shape-rendering="optimizeSpeed"  x="102" y="84" width="6" height="6" fill="black" />
<rect shape-rendering="optimizeSpeed"  x="108" y="84" width="6" height="6" fill="black" />
<rect shape-rendering="optimizeSpeed"  x="120" y="84" width="6" height="6" fill="black" />
<rect shape-rendering="optimizeSpeed"  x="132" y="84" width="6" height="6" fill="black" />
<rect shape-rendering="optimizeSpeed"  x="60" y="90" width="6" height="6" fill="black" />
<rect shape-rendering="optimizeSpeed"  x="66" y="90" width="6" height="6" fill="black" />
<rect shape-rendering="optimizeSpeed"  x="78" y="90" width="6" height="6" fill="black" />
<rect shape-rendering="optimizeSpeed"  x="90" y="90" width="6" height="6" fill="black" />
<rect shape-rendering="optimizeSpeed"  x="102" y="90" width="6" height="6" fill="black" />
<rect shape-rendering="optimizeSpeed"  x="114" y="90" width="6" height="6" fill="black" />
<rect shape-rendering="optimizeSpeed"  x="126" y="90" width="6" height="6" fill="black" />
<rect shape-rendering="optimizeSpeed"  x="132" y="90" width="6" height="6" fill="black" />
<rect shape-rendering="optimizeSpeed"  x="12" y="96" width="6" height="6" fill="black" />
<rect shape-rendering="optimizeSpeed"  x="18" y="96" width="6" height="6" fill="black" />
<rect shape-rendering="optimizeSpeed"  x="24" y="96" width="6" height="6" fill="black" />
<rect shape-rendering="optimizeSpeed"  x="30" y="96" width="6" height="6" fill="black" />
<rect shape-rendering="optimizeSpeed"  x="36" y="96" width="6" height="6" fill="black" />
<rect shape-rendering="optimizeSpeed"  x="42" y="96" width="6" height="6" fill="black" />
<rect shape-rendering="optimizeSpeed"  x="48" y="96" width="6" height="6" fill="black" />
<rect shape-rendering="optimizeSpeed"  x="60" y="96" width="6" height="6" fill="black" />
<rect shape-rendering="optimizeSpeed"  x="66" y="96" width="6" height="6" fill="black" />
<rect shape-rendering="optimizeSpeed"  x="78" y="96" width="6" height="6" fill="black" />
<rect shape-rendering="optimizeSpeed"  x="90" y="96" width="6" height="6" fill="black" />
<rect shape-rendering="optimizeSpeed"  x="96" y="96" width="6" height="6" fill="black" />
<rect shape-rendering="optimizeSpeed"  x="102" y="96" width="6" height="6" fill="black" />
<rect shape-rendering="optimizeSpeed"  x="108" y="96" width="6" height="6" fill="black" />
<rect shape-rendering="optimizeSpeed"  x="132" y="96" width="6" height="6" fill="black" />
<rect shape-rendering="optimizeSpeed"  x="12" y="102" width="6" height="6" fill="black" />
<rect shape-rendering="optimizeSpeed"  x="48" y="102" width="6" height="6" fill="black" />
<rect shape-rendering="optimizeSpeed"  x="60" y="102" width="6" height="6" fill="black" />
<rect shape-rendering="optimizeSpeed"  x="78" y="102" width="6" height="6" fill="black" />
<rect shape-rendering="optimizeSpeed"  x="84" y="102" width="6" height="6" fill="black" />
<rect shape-rendering="optimizeSpeed"  x="90" y="102" width="6" height="6" fill="black" />
<rect shape-rendering="optimizeSpeed"  x="102" y="102" width="6" height="6" fill="black" />
<rect shape-rendering="optimizeSpeed"  x="114" y="102" width="6" height="6" fill="black" />
<rect shape-rendering="optimizeSpeed"  x="12" y="108" width="6" height="6" fill="black" />
<rect shape-rendering="optimizeSpeed"  x="24" y="108" width="6" height="6" fill="black" />
<rect shape-rendering="optimizeSpeed"  x="30" y="108" width="6" height="6" fill="black" />
<rect shape-rendering="optimizeSpeed"  x="36" y="108" width="6" height="6" fill="black" />
<rect shape-rendering="optimizeSpeed"  x="48" y="108" width="6" height="6" fill="black" />
<rect shape-rendering="optimizeSpeed"  x="60" y="108" width="6" height="6" fill="black" />
<rect shape-rendering="optimizeSpeed"  x="66" y="108" width="6" height="6" fill="black" />
<rect shape-rendering="optimizeSpeed"  x="72" y="108" width="6" height="6" fill="black" />
<rect shape-rendering="optimizeSpeed"  x="78" y="108" width="6" height="6" fill="black" />
<rect shape-rendering="optimizeSpeed"  x="90" y="108" width="6" height="6" fill="black" />
<rect shape-rendering="optimizeSpeed"  x="96" y="108" width="6" height="6" fill="black" />
<rect shape-rendering="optimizeSpeed"  x="102" y="108" width="6" height="6" fill="black" />
<rect shape-rendering="optimizeSpeed"  x="108" y="108" width="6" height="6" fill="black" />
<rect shape-rendering="optimizeSpeed"  x="126" y="108" width="6" height="6" fill="black" />
<rect shape-rendering="optimizeSpeed"  x="132" y="108" width="6" height="6" fill="black" />
<rect shape-rendering="optimizeSpeed"  x="12" y="114" width="6" height="6" fill="black" />
<rect shape-rendering="optimizeSpeed"  x="24" y="114" width="6" height="6" fill="black" />
<rect shape-rendering="optimizeSpeed"  x="30" y="114" width="6" height="6" fill="black" />
<rect shape-rendering="optimizeSpeed"  x="36" y="114" width="6" height="6" fill="black" />
<rect shape-rendering="optimizeSpeed"  x="48" y="114" width="6" height="6" fill="black" />
<rect shape-rendering="optimizeSpeed"  x="72" y="114" width="6" height="6" fill="black" />
<rect shape-rendering="optimizeSpeed"  x="96" y="114" width="6" height="6" fill="black" />
<rect shape-rendering="optimizeSpeed"  x="126" y="114" width="6" height="6" fill="black" />
<rect shape-rendering="optimizeSpeed"  x="12" y="120" width="6" height="6" fill="black" />
<rect shape-rendering="optimizeSpeed"  x="24" y="120" width="6" height="6" fill="black" />
<rect shape-rendering="optimizeSpeed"  x="30" y="120" width="6" height="6" fill="black" />
<rect shape-rendering="optimizeSpeed"  x="36" y="120" width="6" height="6" fill="black" />
<rect shape-rendering="optimizeSpeed"  x="48" y="120" width="6" height="6" fill="black" />
<rect shape-rendering="optimizeSpeed"  x="60" y="120" width="6" height="6" fill="black" />
<rect shape-rendering="optimizeSpeed"  x="66" y="120" width="6" height="6" fill="black" />
<rect shape-rendering="optimizeSpeed"  x="72" y="120" width="6" height="6" fill="black" />
<rect shape-rendering="optimizeSpeed"  x="84" y="120" width="6" height="6" fill="black" />
<rect shape-rendering="optimizeSpeed"  x="102" y="120" width="6" height="6" fill="black" />
<rect shape-rendering="optimizeSpeed"  x="108" y="120" width="6" height="6" fill="black" />
<rect shape-rendering="optimizeSpeed"  x="114" y="120" width="6" height="6" fill="black" />
<rect shape-rendering="optimizeSpeed"  x="132" y="120" width="6" height="6" fill="black" />
<rect shape-rendering="optimizeSpeed"  x="12" y="126" width="6" height="6" fill="black" />
<rect shape-rendering="optimizeSpeed"  x="48" y="126" width="6" height="6" fill="black" />
<rect shape-rendering="optimizeSpeed"  x="60" y="126" width="6" height="6" fill="black" />
<rect shape-rendering="optimizeSpeed"  x="96" y="126" width="6" height="6" fill="black" />
<rect shape-rendering="optimizeSpeed"  x="102" y="126" width="6" height="6" fill="black" />
<rect shape-rendering="optimizeSpeed"  x="108" y="126" width="6" height="6" fill="black" />
<rect shape-rendering="optimizeSpeed"  x="114" y="126" width="6" height="6" fill="black" />
<rect shape-rendering="optimizeSpeed"  x="126" y="126" width="6" height="6" fill="black" />
<rect shape-rendering="optimizeSpeed"  x="132" y="126" width="6" height="6" fill="black" />
<rect shape-rendering="optimizeSpeed"  x="12" y="132" width="6" height="6" fill="black" />
<rect shape-rendering="optimizeSpeed"  x="18" y="132" width="6" height="6" fill="black" />
<rect shape-rendering="optimizeSpeed"  x="24" y="132" width="6" height="6" fill="black" />
<rect shape-rendering="optimizeSpeed"  x="30" y="132" width="6" height="6" fill="black" />
<rect shape-rendering="optimizeSpeed"  x="36" y="132" width="6" height="6" fill="black" />
<rect shape-rendering="optimizeSpeed"  x="42" y="132" width="6" height="6" fill="black" />
<rect shape-rendering="optimizeSpeed"  x="48" y="132" width="6" height="6" fill="black" />
<rect shape-rendering="optimizeSpeed"  x="60" y="132" width="6" height="6" fill="black" />
<rect shape-rendering="optimizeSpeed"  x="66" y="132" width="6" height="6" fill="black" />
<rect shape-rendering="optimizeSpeed"  x="84" y="132" width="6" height="6" fill="black" />
<rect shape-rendering="optimizeSpeed"  x="96" y="132" width="6" height="6" fill="black" />
<rect shape-rendering="optimizeSpeed"  x="114" y="132" width="6" height="6" fill="black" />
<rect shape-rendering="optimizeSpeed"  x="132" y="132" width="6" height="6" fill="black" /></svg>